HIERARCHY
ROOT Hips
{
  OFFSET 0.849866 78.6569 -0.536788
  CHANNELS 6 Xposition Yposition Zposition Zrotation Xrotation Yrotation
  JOINT Bip01_Pelvis
  {
    OFFSET 0 0 0
    CHANNELS 6 Xposition Yposition Zposition Zrotation Xrotation Yrotation
    JOINT BN_Tail_01
    {
      OFFSET -5.52397 -0.332285 0
      CHANNELS 6 Xposition Yposition Zposition Zrotation Xrotation Yrotation
      JOINT BN_Tail_02
      {
        OFFSET 6.48885 -2.032e-005 0
        CHANNELS 6 Xposition Yposition Zposition Zrotation Xrotation Yrotation
        JOINT BN_Tail_03
        {
          OFFSET 7.08759 1.016e-005 -0.00261112
          CHANNELS 6 Xposition Yposition Zposition Zrotation Xrotation Yrotation
          End Site
          {
            OFFSET 0 0 0
          }
        }
      }
    }
    JOINT Bip01_Spine
    {
      OFFSET 4.02227 0.398968 0
      CHANNELS 6 Xposition Yposition Zposition Zrotation Xrotation Yrotation
      JOINT BN_UpperArm_R_01
      {
        OFFSET 4.84413 -3.22857 -3.65581
        CHANNELS 6 Xposition Yposition Zposition Zrotation Xrotation Yrotation
        JOINT BN_Forearm_R_01
        {
          OFFSET 8.51614 0 0
          CHANNELS 6 Xposition Yposition Zposition Zrotation Xrotation Yrotation
          JOINT BN_hand_R_01
          {
            OFFSET 10.1924 0 0
            CHANNELS 6 Xposition Yposition Zposition Zrotation Xrotation Yrotation
            JOINT BN_Finger_R_02
            {
              OFFSET 14.5949 -1.43855 0.585079
              CHANNELS 6 Xposition Yposition Zposition Zrotation Xrotation Yrotation
              End Site
              {
                OFFSET 0 0 0
              }
            }
            JOINT BN_Finger_R_01
            {
              OFFSET 14.4623 0 0
              CHANNELS 6 Xposition Yposition Zposition Zrotation Xrotation Yrotation
              End Site
              {
                OFFSET 0 0 0
              }
            }
          }
        }
      }
      JOINT BN_UpperArm_L_01
      {
        OFFSET 4.84412 -3.22858 3.65557
        CHANNELS 6 Xposition Yposition Zposition Zrotation Xrotation Yrotation
        JOINT BN_Forearm_L_01
        {
          OFFSET 8.51611 0 0
          CHANNELS 6 Xposition Yposition Zposition Zrotation Xrotation Yrotation
          JOINT BN_hand_L_01
          {
            OFFSET 10.1924 0 0
            CHANNELS 6 Xposition Yposition Zposition Zrotation Xrotation Yrotation
            JOINT BN_Finger_L_01
            {
              OFFSET 14.4623 0 0
              CHANNELS 6 Xposition Yposition Zposition Zrotation Xrotation Yrotation
              End Site
              {
                OFFSET 0 0 0
              }
            }
            JOINT BN_Finger_L_02
            {
              OFFSET 14.5949 1.43855 0.585071
              CHANNELS 6 Xposition Yposition Zposition Zrotation Xrotation Yrotation
              End Site
              {
                OFFSET 0 0 0
              }
            }
          }
        }
      }
      JOINT Bip01_R_Thigh
      {
        OFFSET -4.03411 -0.254132 -3.45377
        CHANNELS 6 Xposition Yposition Zposition Zrotation Xrotation Yrotation
        JOINT Bip01_R_Calf
        {
          OFFSET 3.92618 0 0
          CHANNELS 6 Xposition Yposition Zposition Zrotation Xrotation Yrotation
          JOINT Bip01_R_HorseLink
          {
            OFFSET 6.12319 0 0
            CHANNELS 6 Xposition Yposition Zposition Zrotation Xrotation Yrotation
            JOINT Bip01_R_Foot
            {
              OFFSET 9.94776 0 0
              CHANNELS 6 Xposition Yposition Zposition Zrotation Xrotation Yrotation
              JOINT Bip01_R_Toe3
              {
                OFFSET 0.881252 -0.110953 0.0158496
                CHANNELS 6 Xposition Yposition Zposition Zrotation Xrotation Yrotation
                JOINT Bip01_R_Toe31
                {
                  OFFSET 2.32137 0 0
                  CHANNELS 6 Xposition Yposition Zposition Zrotation Xrotation Yrotation
                  JOINT Bip01_R_Toe32
                  {
                    OFFSET 1.63293 0 0
                    CHANNELS 6 Xposition Yposition Zposition Zrotation Xrotation Yrotation
                    JOINT Bip01_R_Toe3Nub
                    {
                      OFFSET 1.72131 0 0
                      CHANNELS 6 Xposition Yposition Zposition Zrotation Xrotation Yrotation
                      End Site
                      {
                        OFFSET 0 0 0
                      }
                    }
                  }
                }
              }
              JOINT Bip01_R_Toe2
              {
                OFFSET 0.994751 0.967285 -1.09428
                CHANNELS 6 Xposition Yposition Zposition Zrotation Xrotation Yrotation
                JOINT Bip01_R_Toe21
                {
                  OFFSET 2.20201 0 0
                  CHANNELS 6 Xposition Yposition Zposition Zrotation Xrotation Yrotation
                  JOINT Bip01_R_Toe22
                  {
                    OFFSET 1.84925 0 0
                    CHANNELS 6 Xposition Yposition Zposition Zrotation Xrotation Yrotation
                    JOINT Bip01_R_Toe2Nub
                    {
                      OFFSET 1.70976 0 0
                      CHANNELS 6 Xposition Yposition Zposition Zrotation Xrotation Yrotation
                      End Site
                      {
                        OFFSET 0 0 0
                      }
                    }
                  }
                }
              }
              JOINT Bip01_R_Toe1
              {
                OFFSET 1.3748 1.34027 -0.0712419
                CHANNELS 6 Xposition Yposition Zposition Zrotation Xrotation Yrotation
                JOINT Bip01_R_Toe11
                {
                  OFFSET 2.26122 0 0
                  CHANNELS 6 Xposition Yposition Zposition Zrotation Xrotation Yrotation
                  JOINT Bip01_R_Toe12
                  {
                    OFFSET 2.22215 0 0
                    CHANNELS 6 Xposition Yposition Zposition Zrotation Xrotation Yrotation
                    JOINT Bip01_R_Toe1Nub
                    {
                      OFFSET 1.61867 0 0
                      CHANNELS 6 Xposition Yposition Zposition Zrotation Xrotation Yrotation
                      End Site
                      {
                        OFFSET 0 0 0
                      }
                    }
                  }
                }
              }
              JOINT Bip01_R_Toe0
              {
                OFFSET 1.40695 0.687986 0.883783
                CHANNELS 6 Xposition Yposition Zposition Zrotation Xrotation Yrotation
                JOINT Bip01_R_Toe01
                {
                  OFFSET 2.26828 0 0
                  CHANNELS 6 Xposition Yposition Zposition Zrotation Xrotation Yrotation
                  JOINT Bip01_R_Toe02
                  {
                    OFFSET 2.09769 0 0
                    CHANNELS 6 Xposition Yposition Zposition Zrotation Xrotation Yrotation
                    JOINT Bip01_R_Toe0Nub
                    {
                      OFFSET 1.53753 0 0
                      CHANNELS 6 Xposition Yposition Zposition Zrotation Xrotation Yrotation
                      End Site
                      {
                        OFFSET 0 0 0
                      }
                    }
                  }
                }
              }
            }
          }
        }
      }
      JOINT Bip01_L_Thigh
      {
        OFFSET -4.03411 -0.254147 3.45377
        CHANNELS 6 Xposition Yposition Zposition Zrotation Xrotation Yrotation
        JOINT Bip01_L_Calf
        {
          OFFSET 3.92616 0 0
          CHANNELS 6 Xposition Yposition Zposition Zrotation Xrotation Yrotation
          JOINT Bip01_L_HorseLink
          {
            OFFSET 6.1232 0 0
            CHANNELS 6 Xposition Yposition Zposition Zrotation Xrotation Yrotation
            JOINT Bip01_L_Foot
            {
              OFFSET 9.94775 0 0
              CHANNELS 6 Xposition Yposition Zposition Zrotation Xrotation Yrotation
              JOINT Bip01_L_Toe3
              {
                OFFSET 0.881246 -0.110986 -0.0157582
                CHANNELS 6 Xposition Yposition Zposition Zrotation Xrotation Yrotation
                JOINT Bip01_L_Toe31
                {
                  OFFSET 2.32136 0 0
                  CHANNELS 6 Xposition Yposition Zposition Zrotation Xrotation Yrotation
                  JOINT Bip01_L_Toe32
                  {
                    OFFSET 1.63293 0 0
                    CHANNELS 6 Xposition Yposition Zposition Zrotation Xrotation Yrotation
                    JOINT Bip01_L_Toe3Nub
                    {
                      OFFSET 1.7213 0 0
                      CHANNELS 6 Xposition Yposition Zposition Zrotation Xrotation Yrotation
                      End Site
                      {
                        OFFSET 0 0 0
                      }
                    }
                  }
                }
              }
              JOINT Bip01_L_Toe2
              {
                OFFSET 0.994649 0.967162 1.09447
                CHANNELS 6 Xposition Yposition Zposition Zrotation Xrotation Yrotation
                JOINT Bip01_L_Toe21
                {
                  OFFSET 2.202 0 0
                  CHANNELS 6 Xposition Yposition Zposition Zrotation Xrotation Yrotation
                  JOINT Bip01_L_Toe22
                  {
                    OFFSET 1.84926 0 0
                    CHANNELS 6 Xposition Yposition Zposition Zrotation Xrotation Yrotation
                    JOINT Bip01_L_Toe2Nub
                    {
                      OFFSET 1.70976 0 0
                      CHANNELS 6 Xposition Yposition Zposition Zrotation Xrotation Yrotation
                      End Site
                      {
                        OFFSET 0 0 0
                      }
                    }
                  }
                }
              }
              JOINT Bip01_L_Toe1
              {
                OFFSET 1.37483 1.34021 0.0715086
                CHANNELS 6 Xposition Yposition Zposition Zrotation Xrotation Yrotation
                JOINT Bip01_L_Toe11
                {
                  OFFSET 2.26124 0 0
                  CHANNELS 6 Xposition Yposition Zposition Zrotation Xrotation Yrotation
                  JOINT Bip01_L_Toe12
                  {
                    OFFSET 2.22214 0 0
                    CHANNELS 6 Xposition Yposition Zposition Zrotation Xrotation Yrotation
                    JOINT Bip01_L_Toe1Nub
                    {
                      OFFSET 1.61867 0 0
                      CHANNELS 6 Xposition Yposition Zposition Zrotation Xrotation Yrotation
                      End Site
                      {
                        OFFSET 0 0 0
                      }
                    }
                  }
                }
              }
              JOINT Bip01_L_Toe0
              {
                OFFSET 1.40707 0.688009 -0.883564
                CHANNELS 6 Xposition Yposition Zposition Zrotation Xrotation Yrotation
                JOINT Bip01_L_Toe01
                {
                  OFFSET 2.26828 0 0
                  CHANNELS 6 Xposition Yposition Zposition Zrotation Xrotation Yrotation
                  JOINT Bip01_L_Toe02
                  {
                    OFFSET 2.0977 0 0
                    CHANNELS 6 Xposition Yposition Zposition Zrotation Xrotation Yrotation
                    JOINT Bip01_L_Toe0Nub
                    {
                      OFFSET 1.53752 0 0
                      CHANNELS 6 Xposition Yposition Zposition Zrotation Xrotation Yrotation
                      End Site
                      {
                        OFFSET 0 0 0
                      }
                    }
                  }
                }
              }
            }
          }
        }
      }
      JOINT Bip01_Spine1
      {
        OFFSET 4.90674 -0.00437896 0
        CHANNELS 6 Xposition Yposition Zposition Zrotation Xrotation Yrotation
        JOINT Bip01_Neck
        {
          OFFSET 5.56447 -1.28357 0
          CHANNELS 6 Xposition Yposition Zposition Zrotation Xrotation Yrotation
          JOINT Bip01_Neck1
          {
            OFFSET 2.79308 -0.00219964 0
            CHANNELS 6 Xposition Yposition Zposition Zrotation Xrotation Yrotation
            JOINT Bip01_Head
            {
              OFFSET 2.79272 0 0
              CHANNELS 6 Xposition Yposition Zposition Zrotation Xrotation Yrotation
              JOINT BN_Mouth_01
              {
                OFFSET 4.19089 0.0665938 0
                CHANNELS 6 Xposition Yposition Zposition Zrotation Xrotation Yrotation
                End Site
                {
                  OFFSET 0 0 0
                }
              }
              JOINT Bip01_HeadNub
              {
                OFFSET 6.95118 0 0
                CHANNELS 6 Xposition Yposition Zposition Zrotation Xrotation Yrotation
                End Site
                {
                  OFFSET 0 0 0
                }
              }
            }
          }
        }
      }
    }
  }
}
MOTION
Frames:	3
Frame Time:	0.0333333
65.2041 82.9743 3.19049 -8.44552 -58.2139 96.5397 0 4.54747e-013 -7.10543e-015 -100.511 9.27766 -70.737 -5.52397 -0.332268 7.10543e-015 -15.2372 -0.000136699 174.51 6.48885 -7.62933e-006 -0.00301498 -15.9163 -0.000706451 6.59914 7.08758 5.35465e-011 -0.00296926 -17.5105 -2.67056 12.7647 3.77184 0.61748 1.3104 29.0767 -7.10263 -4.87611 4.84412 -3.2285 -3.65581 -105.545 -37.4232 41.5521 8.5161 -5.59553e-013 7.62939e-006 10.3393 9.15465 -24.9237 10.1924 3.19745e-014 1.90735e-006 -30.856 0.649325 -27.1296 14.5949 -1.43856 0.585077 -66.9018 -2.55185 7.79767 14.4623 3.81471e-006 -1.90735e-006 -2.99615 -0.00130139 -0.799575 4.84411 -3.22853 3.65557 76.5908 -13.3572 -106.397 8.51613 -7.81598e-014 0 -16.6609 -7.79854 -26.2272 10.1924 -3.8147e-006 1.90735e-006 30.8505 -0.646097 -27.6343 14.4623 -1.90735e-006 -1.90735e-006 2.99615 0.00145292 -0.793756 14.5949 1.43855 0.585062 58.5691 -2.17606 9.66585 -3.97198 1.87375 -4.24581 -108.278 23.5592 -175.646 3.92619 -1.90735e-006 -9.53675e-007 -70.2493 2.96246e-006 1.12785e-005 6.12318 -1.42109e-014 -3.55271e-014 97.3997 1.39802e-006 -1.06373e-005 9.94777 1.38386e-010 0.00129604 -65.871 9.74315 28.5021 0.881234 -0.110938 0.0158851 141.221 -4.46183 178.887 2.32136 7.62948e-006 3.55271e-014 55.3919 -0.0230877 -0.0159318 1.63291 7.62952e-006 -7.10543e-015 -87.5396 -1.22745e-005 1.32002e-005 1.72127 3.81479e-006 -1.42108e-014 -2.4139e-007 1.50134e-006 -2.35784e-007 0.99475 0.967402 -1.09414 91.1683 -1.32138 27.4414 2.202 1.5259e-005 -1.15818e-012 13.2234 -0.00687998 0.0555943 1.84924 3.8149e-006 0.000620186 -28.7703 0.00340744 -0.0241453 1.70976 1.42111e-014 1.1921e-007 7.24926e-007 9.92173e-006 -3.99344e-007 1.37474 1.34031 -0.0710567 104.649 -0.685574 -2.62126 2.26123 7.62954e-006 -0.000711679 -3.69747 -0.0199954 0.047328 2.22213 0.000934615 0.00157452 -38.4851 0.0114879 -0.0330356 1.61866 -7.62953e-006 -4.76837e-007 4.81834e-008 -1.32101e-008 6.20685e-008 1.40686 0.687947 0.883912 92.3115 -1.43815 -31.8694 2.26828 1.42111e-014 0 -16.2859 -0.00332581 0.0114256 2.09768 -7.62952e-006 -1.42108e-014 -95.4604 0.000946873 7.07146e-005 1.53752 -7.1056e-015 9.53673e-007 -9.47594e-007 9.37149e-006 9.60008e-006 -3.38923 1.01952 2.58381 -111.848 16.2553 -160.841 3.92615 -3.8147e-006 -9.23706e-014 -61.137 -2.01448e-005 -8.98474e-006 6.1232 -1.42109e-014 3.97904e-013 116.011 -6.97023e-008 -1.29392e-005 9.94775 -1.52589e-005 -9.53672e-007 -28.0089 -26.3815 6.37851 0.881238 -0.111001 -0.0158117 103.743 2.89016 -176.418 2.32138 -1.43054e-006 0.000677824 44.4425 0.0113323 -0.0111041 1.63292 -1.5259e-005 -0.000754356 -38.1269 0.00511011 0.00401426 1.72131 -4.76846e-007 -2.38419e-007 -179.963 0.0132686 -0.00139807 0.994746 0.96733 1.09422 77.4702 8.26543 -26.2754 2.202 3.3474e-011 0.000713348 63.0216 0.0282591 -0.0318283 1.84924 -3.25434e-011 -0.00122452 -35.3145 -0.0095453 0.0299835 1.70978 -5.32917e-015 3.81469e-006 179.965 0.017776 -5.07747e-005 1.37485 1.34022 0.0711682 83.0365 -0.325657 2.67201 2.26123 7.62948e-006 0 49.2911 3.13707e-006 4.6875e-006 2.22211 1.90738e-006 -2.38419e-007 -38.5073 -2.07254e-005 -5.31656e-006 1.61866 -3.81477e-006 7.15256e-007 179.961 -0.000377269 -0.00525316 1.407 0.687848 -0.883795 88.5378 -0.907058 31.8847 2.26828 1.14442e-005 3.81469e-006 49.9345 3.07127e-006 -3.08377e-007 2.0977 -3.81476e-006 4.51194e-013 -61.0221 -1.65598e-005 -1.48769e-005 1.53752 2.13168e-013 -7.10542e-015 179.961 0.000567085 -0.0053216 4.9071 -0.00428772 -0.000376225 14.2403 5.43015 -5.66595 5.56425 -1.28357 0.000253711 3.77877 -5.46389 1.58608 2.79365 -0.0019989 0.000150204 2.5803 0.676546 1.1059 2.79272 -1.42109e-014 1.42109e-014 46.6374 -0.360158 0.948222 4.19087 0.0665818 2.39069e-007 177.366 -0.0369568 179.999 6.95115 7.6294e-006 2.38419e-007 -7.891e-006 1.00115e-005 9.81949e-007 
65.0296 81.4771 4.60617 4.09292 -54.6878 103.101 1.42109e-014 4.47642e-013 0 -100.4 7.67686 -70.0921 -5.52397 -0.332268 0 -18.3944 -0.000167417 175.897 6.48885 -7.62932e-006 -0.00301498 -11.9991 -0.000936436 5.4313 7.08758 6.02967e-011 -0.00296926 -13.3043 -2.38501 10.1496 3.77351 0.50644 1.35943 31.6923 -8.76496 -2.73658 4.84412 -3.2285 -3.65581 -101.61 -40.573 52.025 8.5161 -8.30448e-013 7.62939e-006 14.4281 7.7589 -21.7368 10.1924 1.59872e-014 1.90735e-006 -30.8333 0.63669 -29.1256 14.5949 -1.43856 0.585077 -68.2151 0.0990948 0.109369 14.4623 3.81471e-006 -1.90735e-006 -2.99616 0.000176858 -8.514 4.84411 -3.22853 3.65557 80.2421 -7.87405 -100.346 8.51613 -2.77112e-013 1.42108e-014 -20.0446 -6.6092 -23.2276 10.1924 -3.8147e-006 1.90735e-006 30.8264 -0.633401 -29.6167 14.4623 -1.90735e-006 -1.90735e-006 2.99616 -5.61883e-005 -8.50931 14.5949 1.43855 0.585062 58.1641 -5.15142 2.83443 -3.68856 2.26859 -4.34971 -111.024 19.0604 -174.409 3.92619 -1.90735e-006 -9.53675e-007 -69.6998 2.21727e-006 1.15942e-005 6.12318 2.84218e-014 -4.26326e-014 94.5127 1.72302e-006 -1.06744e-005 9.94777 1.17027e-010 0.00129604 -60.3813 9.91479 23.8739 0.881234 -0.110938 0.0158851 135.685 -4.33143 178.466 2.32136 7.62948e-006 2.84217e-014 60.3656 -0.0267082 -0.0151942 1.63291 7.62952e-006 -3.55271e-014 -87.5396 -1.04566e-005 1.21579e-005 1.72127 3.8148e-006 0 -2.4139e-007 1.50134e-006 -2.35784e-007 0.994751 0.967402 -1.09414 99.5229 3.01251 27.3179 2.202 1.5259e-005 -1.06581e-012 21.3332 0.00192029 0.0582891 1.84924 3.81484e-006 0.000620186 -25.7297 0.000896748 -0.0217313 1.70976 1.42111e-014 1.1921e-007 7.24917e-007 9.92172e-006 -3.99334e-007 1.37474 1.34031 -0.0710567 114.562 -1.12721 -2.46391 2.26123 7.62955e-006 -0.000711679 2.97992 -0.0141383 0.0535195 2.22214 0.000934614 0.00157452 -38.4851 0.0115005 -0.0330349 1.61866 -7.62953e-006 -4.76837e-007 4.81833e-008 -1.32101e-008 6.20687e-008 1.40686 0.687947 0.883912 101.398 -7.01505 -31.1972 2.26828 -2.84221e-014 7.10542e-015 -8.16923 -0.00232524 0.016281 2.09769 -7.62951e-006 7.10542e-015 -95.4618 0.00115982 9.28341e-005 1.53752 -7.1056e-015 9.53673e-007 -9.47593e-007 9.37149e-006 9.60007e-006 -3.36252 1.21588 2.46935 -112.297 13.6134 -161.26 3.92615 -3.8147e-006 -1.27898e-013 -61.2456 -1.95115e-005 -8.31851e-006 6.1232 7.10545e-015 3.48166e-013 115.776 8.49264e-006 -1.67408e-005 9.94775 -1.52589e-005 -9.53672e-007 -20.9691 -27.7922 10.5337 0.881238 -0.111001 -0.0158117 101.262 2.74274 -176.288 2.32138 -1.43054e-006 0.000677824 44.4425 0.011332 -0.0111045 1.63292 -1.5259e-005 -0.000754356 -35.6063 0.00528084 0.0037874 1.72131 -4.76846e-007 -2.38419e-007 -179.963 0.0132686 -0.00139807 0.994746 0.96733 1.09422 79.7184 7.15807 -26.5771 2.202 3.88955e-011 0.000713348 63.0155 0.0306255 -0.0306216 1.84924 -7.53472e-011 -0.00122452 -35.3145 -0.00954447 0.0299828 1.70978 1.55434e-014 3.81469e-006 179.965 0.017776 -5.07736e-005 1.37485 1.34022 0.0711682 85.5186 -0.211495 2.68345 2.26123 7.62948e-006 1.06581e-014 49.2911 2.94894e-006 5.09087e-006 2.22211 1.90738e-006 -2.38419e-007 -38.5073 -2.01201e-005 -5.35929e-006 1.61866 -3.81477e-006 7.15256e-007 179.961 -0.000377268 -0.00525316 1.407 0.687848 -0.883795 90.6476 0.406251 31.8939 2.26828 1.14442e-005 3.81469e-006 49.9345 3.94319e-006 3.60085e-007 2.0977 -3.81476e-006 4.68958e-013 -61.0221 -1.79759e-005 -1.5776e-005 1.53752 2.27379e-013 0 179.961 0.000567092 -0.0053216 4.9071 -0.00428772 -0.000376225 15.3113 5.57185 -6.47138 5.56425 -1.28357 0.000253724 0.0447342 -5.7553 1.86517 2.79365 -0.0019989 0.000150204 -0.043177 1.45106 0.923883 2.79272 -2.84217e-014 -7.10543e-015 53.7224 -1.81422 0.938525 4.19087 0.0665818 2.396e-007 177.096 -0.0413513 179.999 6.95115 7.6294e-006 2.38419e-007 -7.891e-006 1.00115e-005 9.81949e-007 
64.864 80.332 5.87628 15.4026 -50.9426 107.972 1.42109e-014 4.47642e-013 1.42109e-014 -100.269 6.09746 -69.4593 -5.52397 -0.332268 1.42109e-014 -21.4967 -0.000624983 177.437 6.48885 -7.62932e-006 -0.00301498 -7.5748 -0.00132738 4.15053 7.08758 6.75442e-011 -0.00296926 -8.51006 -2.05511 7.25635 3.77012 0.395104 1.40576 34.1319 -10.2364 -0.459626 4.84412 -3.2285 -3.65581 -95.7108 -40.867 64.0159 8.5161 -1.18306e-012 7.62939e-006 19.0616 6.12703 -17.9945 10.1924 8.8818e-015 1.90735e-006 -30.8108 0.623145 -31.1414 14.5949 -1.43856 0.585077 -68.6313 3.019 -8.34167 14.4623 3.81471e-006 -1.90735e-006 -2.99597 0.00166502 -16.3048 4.84411 -3.22853 3.65557 83.6129 -2.7591 -93.9827 8.51613 -5.43566e-013 0 -23.6565 -5.22476 -19.6816 10.1924 -3.8147e-006 1.90735e-006 30.8049 -0.620088 -31.5715 14.4623 -1.90735e-006 -1.90735e-006 2.99597 -0.00157021 -16.3013 14.5949 1.43855 0.585062 56.7383 -8.03107 -4.72987 -3.37819 2.62468 -4.43766 -113.397 14.145 -172.857 3.92619 -1.90735e-006 -9.53675e-007 -69.1849 -6.13909e-006 1.48045e-005 6.12318 -1.42109e-014 -3.90799e-014 91.7254 1.73018e-006 -1.06442e-005 9.94777 8.97563e-011 0.00129604 -54.4883 9.8686 19.0484 0.881234 -0.110938 0.0158851 129.862 -4.16439 178.04 2.32136 7.62948e-006 2.84217e-014 65.5993 -0.0275335 -0.0124917 1.63291 7.62953e-006 7.10543e-015 -87.5396 -9.2482e-006 1.05639e-005 1.72127 3.8148e-006 -1.42109e-014 -2.4139e-007 1.50134e-006 -2.35784e-007 0.994751 0.967401 -1.09414 108.382 7.50269 26.5032 2.202 1.5259e-005 -9.66337e-013 29.8705 0.0096418 0.0557756 1.84924 3.8148e-006 0.000620186 -22.659 -0.00143471 -0.0189481 1.70977 7.10556e-015 1.1921e-007 -9.29286e-006 9.92172e-006 9.61849e-006 1.37475 1.34031 -0.0710567 125.003 -1.55566 -2.21851 2.26123 7.62954e-006 -0.000711679 10.0181 -0.00679107 0.0587324 2.22214 0.000934613 0.00157452 -38.4851 0.0115118 -0.033032 1.61866 -7.62952e-006 -4.76837e-007 4.81834e-008 -1.32101e-008 6.21051e-008 1.40686 0.687947 0.883912 111.201 -12.6886 -29.5135 2.26828 -4.26332e-014 -1.42108e-014 0.3742 0.000125074 0.0175299 2.09769 -7.6295e-006 1.42108e-014 -95.4632 0.00140458 0.000118425 1.53753 -9.77019e-015 9.53674e-007 -9.47594e-007 9.37149e-006 -4.17749e-007 -3.32349 1.39682 2.35965 -112.555 10.767 -161.541 3.92614 -3.8147e-006 -1.42109e-013 -61.6728 -1.46976e-005 -1.01169e-005 6.1232 7.10545e-015 3.05533e-013 115.474 8.94037e-007 -1.26876e-005 9.94775 -1.52589e-005 -9.53672e-007 -13.8559 -28.44 15.209 0.881238 -0.111001 -0.0158117 98.6499 2.55093 -176.189 2.32138 -1.43055e-006 0.000677824 44.4425 0.0113252 -0.0111115 1.63292 -1.5259e-005 -0.000754356 -33.0608 0.00544004 0.0035555 1.72131 -4.76846e-007 -2.38419e-007 -179.963 0.0132686 -0.00139807 0.994746 0.96733 1.09422 82.0817 5.97644 -26.8475 2.202 4.66796e-011 0.000713348 63.0093 0.0330152 -0.0294023 1.84924 -1.22514e-010 -0.00122452 -35.3145 -0.00954359 0.0299821 1.70978 2.84223e-014 3.81469e-006 179.965 0.017776 -5.07725e-005 1.37485 1.34022 0.0711681 88.1355 -0.0883149 2.69032 2.26123 7.62948e-006 7.10543e-015 49.2911 2.42266e-006 5.69712e-006 2.22211 1.90738e-006 -2.38419e-007 -38.5073 -1.38498e-005 -1.19825e-005 1.61866 -3.81477e-006 7.15256e-007 179.961 -0.000377268 -0.00525316 1.407 0.687848 -0.883795 92.8681 1.78831 31.8513 2.26828 1.14442e-005 3.81469e-006 49.9345 4.2721e-006 8.48978e-007 2.0977 -3.81476e-006 9.02388e-013 -61.0221 -1.87778e-005 -1.65801e-005 1.53752 2.20273e-013 -7.10542e-015 179.961 0.000567098 -0.0053216 4.9071 -0.00428772 -0.000376225 16.1769 5.70154 -7.21549 5.56425 -1.28357 0.000253734 -3.90173 -6.09486 2.12612 2.79365 -0.0019989 0.000150204 -2.75211 2.23701 0.666042 2.79272 0 -7.10543e-015 60.6586 -3.18159 1.05923 4.19087 0.0665818 2.40038e-007 176.823 -0.0457917 179.999 6.95115 7.6294e-006 2.38419e-007 -7.891e-006 1.00115e-005 9.81948e-007 
